<svg fill="none" height="25" viewBox="0 0 23 25" width="23" xmlns="http://www.w3.org/2000/svg">
    <path
        d="M5.25834 14.9656L4.47785 18.037L1.62517 18.1007C0.772633 16.4338 0.289062 14.5267 0.289062 12.5C0.289062 10.5403 0.74119 8.69223 1.54262 7.06497H1.54323L4.08292 7.5558L5.19545 10.2169C4.9626 10.9325 4.83569 11.7007 4.83569 12.5C4.83578 13.3676 4.98485 14.1988 5.25834 14.9656Z"
        fill="#FBBB00" />
    <path
        d="M22.5159 10.2922C22.6447 11.0071 22.7118 11.7454 22.7118 12.5C22.7118 13.3461 22.6274 14.1714 22.4667 14.9675C21.9209 17.6766 20.4948 20.0422 18.5193 21.7162L18.5187 21.7156L15.3199 21.5435L14.8671 18.5643C16.178 17.7539 17.2024 16.4857 17.742 14.9675H11.7471V10.2922H17.8295H22.5159Z"
        fill="#518EF8" />
    <path
        d="M18.5182 21.7156L18.5188 21.7163C16.5975 23.3442 14.1569 24.3182 11.5001 24.3182C7.2306 24.3182 3.5186 21.8026 1.625 18.1007L5.25817 14.9656C6.20495 17.6293 8.64247 19.5254 11.5001 19.5254C12.7284 19.5254 13.8791 19.1754 14.8665 18.5643L18.5182 21.7156Z"
        fill="#28B446" />
    <path
        d="M18.6567 3.40259L15.0248 6.53699C14.0028 5.86364 12.7948 5.47465 11.5006 5.47465C8.57831 5.47465 6.0952 7.45775 5.19585 10.2169L1.54358 7.06493H1.54297C3.40885 3.27273 7.16767 0.681824 11.5006 0.681824C14.2209 0.681824 16.7151 1.70327 18.6567 3.40259Z"
        fill="#F14336" />
</svg>
